<svg xmlns="http://www.w3.org/2000/svg" xmlns:xlink="http://www.w3.org/1999/xlink" version="1.1" x="0px" y="0px" viewBox="1 -1 100 100" style="enable-background:new 1 -1 100 100;" xml:space="preserve"><g><g><path d="M93.9,45.3c-0.8-12.1-6.8-23.4-16.3-30.9C68.1,6.9,55.7,3.8,43.7,5.8C22.3,9.5,6.6,29.3,8.1,51.1    c0.7,10.5,5.1,20.2,12.5,27.6c-1.9,2.8-3.6,4.6-8.1,8.2c-0.9,0.7-1.3,1.8-1,2.9c0.2,1.1,1,2,2,2.3c1.5,0.5,3.7,0.7,6.2,0.7    c5.3,0,12-1.2,17.2-3.9c6.9,2.4,14.3,3,21.6,1.7C79.9,86.8,95.4,66.9,93.9,45.3z M31,56c-3.9,0-7-3.1-7-7s3.1-7,7-7s7,3.1,7,7    S34.9,56,31,56z M51,56c-3.9,0-7-3.1-7-7s3.1-7,7-7s7,3.1,7,7S54.9,56,51,56z M71,56c-3.9,0-7-3.1-7-7s3.1-7,7-7s7,3.1,7,7    S74.9,56,71,56z"/></g></g><text x="1" y="114" fill="#000000" font-size="5px" font-weight="bold" font-family="'Helvetica Neue', Helvetica, Arial-Unicode, Arial, Sans-serif">Created by Amazing</text><text x="1" y="119" fill="#000000" font-size="5px" font-weight="bold" font-family="'Helvetica Neue', Helvetica, Arial-Unicode, Arial, Sans-serif">from the Noun Project</text></svg>