<svg xmlns="http://www.w3.org/2000/svg" version="1.1" x="0px" y="0px" viewBox="0 0 100 100" enable-background="new 0 0 100 100" xml:space="preserve">
    <path d="M7.166,63.384c0,0,6.216-14.293,29.26-5.228c0,0,2.841-2.613,6.86-4.738c0,0,10.181-5.39,20.149,2.777
     c0,0,3.537,0.871,4.287-0.979c0,0-3.536-22.76-3.107-25.483c0,0,0-1.525-1.18-4.465c-1.179-2.94-1.179-2.94-5.037-7.949
     c0,0-2.358-0.981-9.754,0c0,0-11.146,0.763-11.79-1.416c0,0-1.071-2.396-2.25-2.832c0,0-0.643-1.198-0.107-1.742
     c0,0,2.894-7.188,5.038-9.801c0,0,1.714-0.654,2.036-1.525c0,0,13.184-0.217,19.828,2.94c0,0,5.252,2.614,7.503,4.901
     c0,0,8.146,11.761,10.61,15.899c0,0,11.361,16.553,12.112,24.395c0,0-0.322,0.327,0.536,2.722c0,0,3.215,4.793,4.607,13.068
     c0,0,0.751,3.921-0.696,7.624c0,0-5.948,8.276-12.594,7.95c0,0-16.398,15.681-31.188,16.771c0,0-7.825,0-9.647-0.98
     c0,0-4.18,0-5.788,0.98c0,0-6.431,2.135-6.967,2.243c-0.536,0.11-5.68,2.07-8.253,1.309C19.062,99.062-2.48,73.076,4.379,65.344"/>
</svg>