<svg xmlns:dc="http://purl.org/dc/elements/1.1/" xmlns:cc="http://creativecommons.org/ns#" xmlns:rdf="http://www.w3.org/1999/02/22-rdf-syntax-ns#" xmlns:svg="http://www.w3.org/2000/svg" xmlns="http://www.w3.org/2000/svg" xmlns:sodipodi="http://sodipodi.sourceforge.net/DTD/sodipodi-0.dtd" xmlns:inkscape="http://www.inkscape.org/namespaces/inkscape" viewBox="0 0 25.4 25.4" version="1.1" x="0px" y="0px">
    <g transform="translate(0,-271.59998)">
    <path style="color:#000000;font-style:normal;font-variant:normal;font-weight:normal;font-stretch:normal;font-size:medium;line-height:normal;font-family:sans-serif;font-variant-ligatures:normal;font-variant-position:normal;font-variant-caps:normal;font-variant-numeric:normal;font-variant-alternates:normal;font-feature-settings:normal;text-indent:0;text-align:start;text-decoration:none;text-decoration-line:none;text-decoration-style:solid;text-decoration-color:#000000;letter-spacing:normal;word-spacing:normal;text-transform:none;writing-mode:lr-tb;direction:ltr;text-orientation:mixed;dominant-baseline:auto;baseline-shift:baseline;text-anchor:start;white-space:normal;shape-padding:0;clip-rule:nonzero;display:inline;overflow:visible;visibility:visible;opacity:1;isolation:auto;mix-blend-mode:normal;color-interpolation:sRGB;color-interpolation-filters:linearRGB;solid-color:#000000;solid-opacity:1;vector-effect:none;fill:#000000;fill-opacity:1;fill-rule:nonzero;stroke:none;stroke-width:3.99999976;stroke-linecap:round;stroke-linejoin:round;stroke-miterlimit:4;stroke-dasharray:none;stroke-dashoffset:0;stroke-opacity:1;paint-order:stroke fill markers;color-rendering:auto;image-rendering:auto;shape-rendering:auto;text-rendering:auto;enable-background:accumulate" d="m 22,5.9980469 c -4.397398,0 -8,3.602595 -8,8.0000001 l 0.0039,68 c 0.0011,4.396548 3.5974,8 7.994141,8 H 76.0039 c 1.101472,-0.0044 1.992087,-0.898519 1.992188,-2 V 78 H 80 c 1.104524,-1.1e-4 1.99989,-0.895476 2,-2 V 7.9980469 c -1.1e-4,-1.1045238 -0.895476,-1.9998896 -2,-2 H 70.001953 V 27.998047 c 0.0059,1.603918 -1.783655,2.562108 -3.115234,1.667969 L 62,26.404297 57.105469,29.666016 c -1.330244,0.884191 -3.109162,-0.07068 -3.107422,-1.667969 V 5.9980469 Z m 36,0 V 24.263672 l 2.892578,-1.927734 c 0.670907,-0.446056 1.543937,-0.446056 2.214844,0 l 2.894531,1.927734 V 5.9980469 Z M 21.998047,78.003906 h 52.005859 v 7.994141 H 21.998047 c -2.250602,0 -4.001954,-1.75132 -4.001953,-4.001953 0,-2.250558 1.751366,-3.992188 4.001953,-3.992188 z" transform="matrix(0.26458333,0,0,0.26458333,0,271.59998)"/>
    </g>
</svg>