<svg xmlns="http://www.w3.org/2000/svg" version="1.1" x="0px" y="0px" viewBox="0 0 100 100" enable-background="new 0 0 100 100" xml:space="preserve">
    <path d="M75.547,38.75024c-1.96429-9.66058-4.97876-19.0495-14.16333-24.01532c-8.83093-4.77466-20.52045-4.90082-28.89502,0.94995   c-14.10071,9.8512-14.66595,32.49615-6.4433,46.22974c0.56317,0.94055,1.46545,2.15326,1.45715,3.30206   c0,0.00549,0.00909,22.89087,0.00909,22.89087h31.21735V73.06982c9.50073,1.31238,14.59686-2.0293,14.59686-2.0293   l0.60797-13.34259l6.85046-1.0025C80.34302,56.75995,75.87427,40.35974,75.547,38.75024z M56.83801,42.77496   c-6.25061,0.81836-11.67914,3.65839-17.74268,5.18658c-5.03564,1.26917-9.83441,0.24182-10.38385-5.91791   c-0.65063-7.29755,1.76227-14.86023,7.55029-19.35663c2.37659-1.84625,5.33368-3.08392,8.45807-3.68628   c5.11853-0.98694,10.6861-0.26892,14.88605,2.27124c4.85846,2.93842,7.51733,8.15314,7.51709,13.94183   C67.1228,40.80743,61.13611,42.21222,56.83801,42.77496z"/>
</svg>